# Tiled2Unity generated file. Do not modify by hand.
# Wavefront file for 'CUEVA_mesh_0004.obj'

# Vertices (Count = 532)
v -2 -3 0
v -3 -3 0
v -3 -2 0
v -2 -2 0
v -5 -3 0
v -6 -3 0
v -6 -2 0
v -5 -2 0
v -16 -3 0
v -17 -3 0
v -17 -2 0
v -16 -2 0
v -21 -3 0
v -22 -3 0
v -22 -2 0
v -21 -2 0
v -24 -3 0
v -25 -3 0
v -25 -2 0
v -24 -2 0
v -44 -3 0
v -45 -3 0
v -45 -2 0
v -44 -2 0
v -45 -3 0
v -46 -3 0
v -46 -2 0
v -45 -2 0
v -46 -3 0
v -47 -3 0
v -47 -2 0
v -46 -2 0
v -47 -3 0
v -48 -3 0
v -48 -2 0
v -47 -2 0
v -2 -4 0
v -3 -4 0
v -3 -3 0
v -2 -3 0
v -5 -4 0
v -6 -4 0
v -6 -3 0
v -5 -3 0
v -12 -4 0
v -13 -4 0
v -13 -3 0
v -12 -3 0
v -16 -4 0
v -17 -4 0
v -17 -3 0
v -16 -3 0
v -21 -4 0
v -22 -4 0
v -22 -3 0
v -21 -3 0
v -24 -4 0
v -25 -4 0
v -25 -3 0
v -24 -3 0
v -29 -4 0
v -30 -4 0
v -30 -3 0
v -29 -3 0
v -33 -4 0
v -34 -4 0
v -34 -3 0
v -33 -3 0
v -44 -4 0
v -45 -4 0
v -45 -3 0
v -44 -3 0
v -45 -4 0
v -46 -4 0
v -46 -3 0
v -45 -3 0
v -46 -4 0
v -47 -4 0
v -47 -3 0
v -46 -3 0
v -47 -4 0
v -48 -4 0
v -48 -3 0
v -47 -3 0
v -12 -5 0
v -13 -5 0
v -13 -4 0
v -12 -4 0
v -16 -5 0
v -17 -5 0
v -17 -4 0
v -16 -4 0
v -29 -5 0
v -30 -5 0
v -30 -4 0
v -29 -4 0
v -33 -5 0
v -34 -5 0
v -34 -4 0
v -33 -4 0
v -37 -5 0
v -38 -5 0
v -38 -4 0
v -37 -4 0
v -38 -5 0
v -39 -5 0
v -39 -4 0
v -38 -4 0
v -44 -5 0
v -45 -5 0
v -45 -4 0
v -44 -4 0
v -45 -5 0
v -46 -5 0
v -46 -4 0
v -45 -4 0
v -46 -5 0
v -47 -5 0
v -47 -4 0
v -46 -4 0
v -47 -5 0
v -48 -5 0
v -48 -4 0
v -47 -4 0
v -37 -6 0
v -38 -6 0
v -38 -5 0
v -37 -5 0
v -38 -6 0
v -39 -6 0
v -39 -5 0
v -38 -5 0
v -44 -6 0
v -45 -6 0
v -45 -5 0
v -44 -5 0
v -45 -6 0
v -46 -6 0
v -46 -5 0
v -45 -5 0
v -46 -6 0
v -47 -6 0
v -47 -5 0
v -46 -5 0
v -47 -6 0
v -48 -6 0
v -48 -5 0
v -47 -5 0
v -45 -10 0
v -46 -10 0
v -46 -9 0
v -45 -9 0
v -45 -11 0
v -46 -11 0
v -46 -10 0
v -45 -10 0
v -10 -12 0
v -11 -12 0
v -11 -11 0
v -10 -11 0
v -11 -12 0
v -12 -12 0
v -12 -11 0
v -11 -11 0
v -10 -13 0
v -11 -13 0
v -11 -12 0
v -10 -12 0
v -11 -13 0
v -12 -13 0
v -12 -12 0
v -11 -12 0
v -14 -15 0
v -15 -15 0
v -15 -14 0
v -14 -14 0
v -15 -15 0
v -16 -15 0
v -16 -14 0
v -15 -14 0
v -16 -15 0
v -17 -15 0
v -17 -14 0
v -16 -14 0
v -17 -15 0
v -18 -15 0
v -18 -14 0
v -17 -14 0
v -18 -15 0
v -19 -15 0
v -19 -14 0
v -18 -14 0
v -19 -15 0
v -20 -15 0
v -20 -14 0
v -19 -14 0
v -14 -16 0
v -15 -16 0
v -15 -15 0
v -14 -15 0
v -15 -16 0
v -16 -16 0
v -16 -15 0
v -15 -15 0
v -16 -16 0
v -17 -16 0
v -17 -15 0
v -16 -15 0
v -17 -16 0
v -18 -16 0
v -18 -15 0
v -17 -15 0
v -18 -16 0
v -19 -16 0
v -19 -15 0
v -18 -15 0
v -19 -16 0
v -20 -16 0
v -20 -15 0
v -19 -15 0
v -27 -16 0
v -28 -16 0
v -28 -15 0
v -27 -15 0
v -28 -16 0
v -29 -16 0
v -29 -15 0
v -28 -15 0
v -39 -16 0
v -40 -16 0
v -40 -15 0
v -39 -15 0
v -14 -17 0
v -15 -17 0
v -15 -16 0
v -14 -16 0
v -15 -17 0
v -16 -17 0
v -16 -16 0
v -15 -16 0
v -16 -17 0
v -17 -17 0
v -17 -16 0
v -16 -16 0
v -17 -17 0
v -18 -17 0
v -18 -16 0
v -17 -16 0
v -18 -17 0
v -19 -17 0
v -19 -16 0
v -18 -16 0
v -19 -17 0
v -20 -17 0
v -20 -16 0
v -19 -16 0
v -27 -17 0
v -28 -17 0
v -28 -16 0
v -27 -16 0
v -28 -17 0
v -29 -17 0
v -29 -16 0
v -28 -16 0
v -14 -18 0
v -15 -18 0
v -15 -17 0
v -14 -17 0
v -15 -18 0
v -16 -18 0
v -16 -17 0
v -15 -17 0
v -16 -18 0
v -17 -18 0
v -17 -17 0
v -16 -17 0
v -17 -18 0
v -18 -18 0
v -18 -17 0
v -17 -17 0
v -18 -18 0
v -19 -18 0
v -19 -17 0
v -18 -17 0
v -19 -18 0
v -20 -18 0
v -20 -17 0
v -19 -17 0
v -44 -18 0
v -45 -18 0
v -45 -17 0
v -44 -17 0
v -47 -18 0
v -48 -18 0
v -48 -17 0
v -47 -17 0
v -14 -19 0
v -15 -19 0
v -15 -18 0
v -14 -18 0
v -15 -19 0
v -16 -19 0
v -16 -18 0
v -15 -18 0
v -16 -19 0
v -17 -19 0
v -17 -18 0
v -16 -18 0
v -17 -19 0
v -18 -19 0
v -18 -18 0
v -17 -18 0
v -18 -19 0
v -19 -19 0
v -19 -18 0
v -18 -18 0
v -19 -19 0
v -20 -19 0
v -20 -18 0
v -19 -18 0
v -44 -19 0
v -45 -19 0
v -45 -18 0
v -44 -18 0
v -47 -19 0
v -48 -19 0
v -48 -18 0
v -47 -18 0
v -14 -20 0
v -15 -20 0
v -15 -19 0
v -14 -19 0
v -15 -20 0
v -16 -20 0
v -16 -19 0
v -15 -19 0
v -16 -20 0
v -17 -20 0
v -17 -19 0
v -16 -19 0
v -17 -20 0
v -18 -20 0
v -18 -19 0
v -17 -19 0
v -18 -20 0
v -19 -20 0
v -19 -19 0
v -18 -19 0
v -19 -20 0
v -20 -20 0
v -20 -19 0
v -19 -19 0
v -2 -21 0
v -3 -21 0
v -3 -20 0
v -2 -20 0
v -3 -21 0
v -4 -21 0
v -4 -20 0
v -3 -20 0
v -2 -22 0
v -3 -22 0
v -3 -21 0
v -2 -21 0
v -3 -22 0
v -4 -22 0
v -4 -21 0
v -3 -21 0
v -17 -25 0
v -18 -25 0
v -18 -24 0
v -17 -24 0
v -17 -26 0
v -18 -26 0
v -18 -25 0
v -17 -25 0
v -13 -27 0
v -14 -27 0
v -14 -26 0
v -13 -26 0
v -13 -28 0
v -14 -28 0
v -14 -27 0
v -13 -27 0
v -22 -30 0
v -23 -30 0
v -23 -29 0
v -22 -29 0
v -40 -30 0
v -41 -30 0
v -41 -29 0
v -40 -29 0
v -41 -30 0
v -42 -30 0
v -42 -29 0
v -41 -29 0
v -22 -31 0
v -23 -31 0
v -23 -30 0
v -22 -30 0
v -40 -31 0
v -41 -31 0
v -41 -30 0
v -40 -30 0
v -41 -31 0
v -42 -31 0
v -42 -30 0
v -41 -30 0
v -40 -32 0
v -41 -32 0
v -41 -31 0
v -40 -31 0
v -34 -33 0
v -35 -33 0
v -35 -32 0
v -34 -32 0
v -43 -33 0
v -44 -33 0
v -44 -32 0
v -43 -32 0
v -46 -33 0
v -47 -33 0
v -47 -32 0
v -46 -32 0
v -47 -33 0
v -48 -33 0
v -48 -32 0
v -47 -32 0
v -34 -34 0
v -35 -34 0
v -35 -33 0
v -34 -33 0
v -46 -34 0
v -47 -34 0
v -47 -33 0
v -46 -33 0
v -47 -34 0
v -48 -34 0
v -48 -33 0
v -47 -33 0
v -10 -35 0
v -11 -35 0
v -11 -34 0
v -10 -34 0
v -18 -35 0
v -19 -35 0
v -19 -34 0
v -18 -34 0
v -6 -37 0
v -7 -37 0
v -7 -36 0
v -6 -36 0
v -31 -37 0
v -32 -37 0
v -32 -36 0
v -31 -36 0
v -6 -38 0
v -7 -38 0
v -7 -37 0
v -6 -37 0
v -30 -39 0
v -31 -39 0
v -31 -38 0
v -30 -38 0
v -36 -41 0
v -37 -41 0
v -37 -40 0
v -36 -40 0
v -37 -41 0
v -38 -41 0
v -38 -40 0
v -37 -40 0
v -36 -42 0
v -37 -42 0
v -37 -41 0
v -36 -41 0
v -37 -42 0
v -38 -42 0
v -38 -41 0
v -37 -41 0
v -4 -44 0
v -5 -44 0
v -5 -43 0
v -4 -43 0
v -16 -44 0
v -17 -44 0
v -17 -43 0
v -16 -43 0
v -39 -44 0
v -40 -44 0
v -40 -43 0
v -39 -43 0
v -4 -45 0
v -5 -45 0
v -5 -44 0
v -4 -44 0
v -10 -45 0
v -11 -45 0
v -11 -44 0
v -10 -44 0
v -16 -45 0
v -17 -45 0
v -17 -44 0
v -16 -44 0
v -39 -45 0
v -40 -45 0
v -40 -44 0
v -39 -44 0
v -43 -45 0
v -44 -45 0
v -44 -44 0
v -43 -44 0
v -44 -45 0
v -45 -45 0
v -45 -44 0
v -44 -44 0
v -43 -46 0
v -44 -46 0
v -44 -45 0
v -43 -45 0
v -44 -46 0
v -45 -46 0
v -45 -45 0
v -44 -45 0
v -13 -49 0
v -14 -49 0
v -14 -48 0
v -13 -48 0
v -13 -50 0
v -14 -50 0
v -14 -49 0
v -13 -49 0

# Texture cooridinates (Count = 40)
vt 0 0.76
vt 0.025 0.76
vt 0.025 0.8
vt 0 0.8
vt 0.15 0.8
vt 0.175 0.8
vt 0.175 0.84
vt 0.15 0.84
vt 0 0.68
vt 0.025 0.68
vt 0.025 0.72
vt 0 0.72
vt 0.05 0.68
vt 0.05 0.72
vt 0.075 0.68
vt 0.075 0.72
vt 0 0.64
vt 0.025 0.64
vt 0.1 0.68
vt 0.1 0.72
vt 0.125 0.68
vt 0.125 0.72
vt 0.05 0.64
vt 0.075 0.64
vt 0.175 0.76
vt 0.2 0.76
vt 0.2 0.8
vt 0.225 0.76
vt 0.225 0.8
vt 0.1 0.64
vt 0.125 0.64
vt 0.175 0.72
vt 0.2 0.72
vt 0.225 0.72
vt 0 0.6
vt 0.025 0.6
vt 0.05 0.6
vt 0.075 0.6
vt 0.025 0.84
vt 0 0.84

# Normal
vn 0 0 -1

# Mesh description
g CUEVA_mesh_0004

# Faces
f 1/1/1 2/2/1 3/3/1 4/4/1
f 5/1/1 6/2/1 7/3/1 8/4/1
f 9/5/1 10/6/1 11/7/1 12/8/1
f 13/1/1 14/2/1 15/3/1 16/4/1
f 17/1/1 18/2/1 19/3/1 20/4/1
f 21/9/1 22/10/1 23/11/1 24/12/1
f 25/10/1 26/13/1 27/14/1 28/11/1
f 29/10/1 30/13/1 31/14/1 32/11/1
f 33/13/1 34/15/1 35/16/1 36/14/1
f 37/12/1 38/11/1 39/2/1 40/1/1
f 41/12/1 42/11/1 43/2/1 44/1/1
f 45/1/1 46/2/1 47/3/1 48/4/1
f 49/1/1 50/2/1 51/3/1 52/4/1
f 53/12/1 54/11/1 55/2/1 56/1/1
f 57/12/1 58/11/1 59/2/1 60/1/1
f 61/1/1 62/2/1 63/3/1 64/4/1
f 65/1/1 66/2/1 67/3/1 68/4/1
f 69/17/1 70/18/1 71/10/1 72/9/1
f 73/15/1 74/19/1 75/20/1 76/16/1
f 77/19/1 78/21/1 79/22/1 80/20/1
f 81/23/1 82/24/1 83/15/1 84/13/1
f 85/12/1 86/11/1 87/2/1 88/1/1
f 89/12/1 90/11/1 91/2/1 92/1/1
f 93/12/1 94/11/1 95/2/1 96/1/1
f 97/12/1 98/11/1 99/2/1 100/1/1
f 101/25/1 102/26/1 103/27/1 104/6/1
f 105/26/1 106/28/1 107/29/1 108/27/1
f 109/17/1 110/18/1 111/10/1 112/9/1
f 113/24/1 114/30/1 115/19/1 116/15/1
f 117/30/1 118/31/1 119/21/1 120/19/1
f 121/23/1 122/24/1 123/15/1 124/13/1
f 125/32/1 126/33/1 127/26/1 128/25/1
f 129/33/1 130/34/1 131/28/1 132/26/1
f 133/35/1 134/36/1 135/18/1 136/17/1
f 137/36/1 138/37/1 139/23/1 140/18/1
f 141/36/1 142/37/1 143/23/1 144/18/1
f 145/37/1 146/38/1 147/24/1 148/23/1
f 149/1/1 150/2/1 151/3/1 152/4/1
f 153/12/1 154/11/1 155/2/1 156/1/1
f 157/25/1 158/26/1 159/27/1 160/6/1
f 161/26/1 162/28/1 163/29/1 164/27/1
f 165/32/1 166/33/1 167/26/1 168/25/1
f 169/33/1 170/34/1 171/28/1 172/26/1
f 173/9/1 174/10/1 175/11/1 176/12/1
f 177/10/1 178/13/1 179/14/1 180/11/1
f 181/10/1 182/13/1 183/14/1 184/11/1
f 185/10/1 186/13/1 187/14/1 188/11/1
f 189/10/1 190/13/1 191/14/1 192/11/1
f 193/13/1 194/15/1 195/16/1 196/14/1
f 197/17/1 198/18/1 199/10/1 200/9/1
f 201/18/1 202/23/1 203/13/1 204/10/1
f 205/15/1 206/19/1 207/20/1 208/16/1
f 209/19/1 210/21/1 211/22/1 212/20/1
f 213/18/1 214/23/1 215/13/1 216/10/1
f 217/23/1 218/24/1 219/15/1 220/13/1
f 221/25/1 222/26/1 223/27/1 224/6/1
f 225/26/1 226/28/1 227/29/1 228/27/1
f 229/4/1 230/3/1 231/39/1 232/40/1
f 233/17/1 234/18/1 235/10/1 236/9/1
f 237/18/1 238/23/1 239/13/1 240/10/1
f 241/24/1 242/30/1 243/19/1 244/15/1
f 245/30/1 246/31/1 247/21/1 248/19/1
f 249/18/1 250/23/1 251/13/1 252/10/1
f 253/23/1 254/24/1 255/15/1 256/13/1
f 257/32/1 258/33/1 259/26/1 260/25/1
f 261/33/1 262/34/1 263/28/1 264/26/1
f 265/17/1 266/18/1 267/10/1 268/9/1
f 269/18/1 270/23/1 271/13/1 272/10/1
f 273/15/1 274/19/1 275/20/1 276/16/1
f 277/19/1 278/21/1 279/22/1 280/20/1
f 281/18/1 282/23/1 283/13/1 284/10/1
f 285/23/1 286/24/1 287/15/1 288/13/1
f 289/1/1 290/2/1 291/3/1 292/4/1
f 293/1/1 294/2/1 295/3/1 296/4/1
f 297/17/1 298/18/1 299/10/1 300/9/1
f 301/18/1 302/23/1 303/13/1 304/10/1
f 305/24/1 306/30/1 307/19/1 308/15/1
f 309/30/1 310/31/1 311/21/1 312/19/1
f 313/18/1 314/23/1 315/13/1 316/10/1
f 317/23/1 318/24/1 319/15/1 320/13/1
f 321/12/1 322/11/1 323/2/1 324/1/1
f 325/12/1 326/11/1 327/2/1 328/1/1
f 329/35/1 330/36/1 331/18/1 332/17/1
f 333/36/1 334/37/1 335/23/1 336/18/1
f 337/36/1 338/37/1 339/23/1 340/18/1
f 341/36/1 342/37/1 343/23/1 344/18/1
f 345/36/1 346/37/1 347/23/1 348/18/1
f 349/37/1 350/38/1 351/24/1 352/23/1
f 353/25/1 354/26/1 355/27/1 356/6/1
f 357/26/1 358/28/1 359/29/1 360/27/1
f 361/32/1 362/33/1 363/26/1 364/25/1
f 365/33/1 366/34/1 367/28/1 368/26/1
f 369/1/1 370/2/1 371/3/1 372/4/1
f 373/12/1 374/11/1 375/2/1 376/1/1
f 377/1/1 378/2/1 379/3/1 380/4/1
f 381/12/1 382/11/1 383/2/1 384/1/1
f 385/1/1 386/2/1 387/3/1 388/4/1
f 389/25/1 390/26/1 391/27/1 392/6/1
f 393/26/1 394/28/1 395/29/1 396/27/1
f 397/12/1 398/11/1 399/2/1 400/1/1
f 401/32/1 402/33/1 403/26/1 404/25/1
f 405/33/1 406/34/1 407/28/1 408/26/1
f 409/4/1 410/3/1 411/39/1 412/40/1
f 413/1/1 414/2/1 415/3/1 416/4/1
f 417/4/1 418/3/1 419/39/1 420/40/1
f 421/25/1 422/26/1 423/27/1 424/6/1
f 425/26/1 426/28/1 427/29/1 428/27/1
f 429/12/1 430/11/1 431/2/1 432/1/1
f 433/32/1 434/33/1 435/26/1 436/25/1
f 437/33/1 438/34/1 439/28/1 440/26/1
f 441/4/1 442/3/1 443/39/1 444/40/1
f 445/4/1 446/3/1 447/39/1 448/40/1
f 449/1/1 450/2/1 451/3/1 452/4/1
f 453/4/1 454/3/1 455/39/1 456/40/1
f 457/12/1 458/11/1 459/2/1 460/1/1
f 461/4/1 462/3/1 463/39/1 464/40/1
f 465/25/1 466/26/1 467/27/1 468/6/1
f 469/26/1 470/28/1 471/29/1 472/27/1
f 473/32/1 474/33/1 475/26/1 476/25/1
f 477/33/1 478/34/1 479/28/1 480/26/1
f 481/1/1 482/2/1 483/3/1 484/4/1
f 485/1/1 486/2/1 487/3/1 488/4/1
f 489/1/1 490/2/1 491/3/1 492/4/1
f 493/12/1 494/11/1 495/2/1 496/1/1
f 497/4/1 498/3/1 499/39/1 500/40/1
f 501/12/1 502/11/1 503/2/1 504/1/1
f 505/12/1 506/11/1 507/2/1 508/1/1
f 509/25/1 510/26/1 511/27/1 512/6/1
f 513/26/1 514/28/1 515/29/1 516/27/1
f 517/32/1 518/33/1 519/26/1 520/25/1
f 521/33/1 522/34/1 523/28/1 524/26/1
f 525/1/1 526/2/1 527/3/1 528/4/1
f 529/12/1 530/11/1 531/2/1 532/1/1

