# Tiled2Unity generated file. Do not modify by hand.
# Wavefront file for 'BosqueInicio_mesh_0005.obj'

# Vertices (Count = 648)
v 0 -1 0
v -1 -1 0
v -1 0 0
v 0 0 0
v -1 -1 0
v -2 -1 0
v -2 0 0
v -1 0 0
v -2 -1 0
v -3 -1 0
v -3 0 0
v -2 0 0
v -3 -1 0
v -4 -1 0
v -4 0 0
v -3 0 0
v -4 -1 0
v -5 -1 0
v -5 0 0
v -4 0 0
v -5 -1 0
v -6 -1 0
v -6 0 0
v -5 0 0
v -6 -1 0
v -7 -1 0
v -7 0 0
v -6 0 0
v -7 -1 0
v -8 -1 0
v -8 0 0
v -7 0 0
v -8 -1 0
v -9 -1 0
v -9 0 0
v -8 0 0
v -10 -1 0
v -11 -1 0
v -11 0 0
v -10 0 0
v -11 -1 0
v -12 -1 0
v -12 0 0
v -11 0 0
v -12 -1 0
v -13 -1 0
v -13 0 0
v -12 0 0
v -13 -1 0
v -14 -1 0
v -14 0 0
v -13 0 0
v -14 -1 0
v -15 -1 0
v -15 0 0
v -14 0 0
v -15 -1 0
v -16 -1 0
v -16 0 0
v -15 0 0
v -16 -1 0
v -17 -1 0
v -17 0 0
v -16 0 0
v -17 -1 0
v -18 -1 0
v -18 0 0
v -17 0 0
v -18 -1 0
v -19 -1 0
v -19 0 0
v -18 0 0
v -19 -1 0
v -20 -1 0
v -20 0 0
v -19 0 0
v 0 -2 0
v -1 -2 0
v -1 -1 0
v 0 -1 0
v -1 -2 0
v -2 -2 0
v -2 -1 0
v -1 -1 0
v -2 -2 0
v -3 -2 0
v -3 -1 0
v -2 -1 0
v -3 -2 0
v -4 -2 0
v -4 -1 0
v -3 -1 0
v -4 -2 0
v -5 -2 0
v -5 -1 0
v -4 -1 0
v -5 -2 0
v -6 -2 0
v -6 -1 0
v -5 -1 0
v -6 -2 0
v -7 -2 0
v -7 -1 0
v -6 -1 0
v -7 -2 0
v -8 -2 0
v -8 -1 0
v -7 -1 0
v -8 -2 0
v -9 -2 0
v -9 -1 0
v -8 -1 0
v -10 -2 0
v -11 -2 0
v -11 -1 0
v -10 -1 0
v -11 -2 0
v -12 -2 0
v -12 -1 0
v -11 -1 0
v -12 -2 0
v -13 -2 0
v -13 -1 0
v -12 -1 0
v -13 -2 0
v -14 -2 0
v -14 -1 0
v -13 -1 0
v -14 -2 0
v -15 -2 0
v -15 -1 0
v -14 -1 0
v -15 -2 0
v -16 -2 0
v -16 -1 0
v -15 -1 0
v -16 -2 0
v -17 -2 0
v -17 -1 0
v -16 -1 0
v -17 -2 0
v -18 -2 0
v -18 -1 0
v -17 -1 0
v -18 -2 0
v -19 -2 0
v -19 -1 0
v -18 -1 0
v -19 -2 0
v -20 -2 0
v -20 -1 0
v -19 -1 0
v 0 -3 0
v -1 -3 0
v -1 -2 0
v 0 -2 0
v -1 -3 0
v -2 -3 0
v -2 -2 0
v -1 -2 0
v -6 -3 0
v -7 -3 0
v -7 -2 0
v -6 -2 0
v -7 -3 0
v -8 -3 0
v -8 -2 0
v -7 -2 0
v -8 -3 0
v -9 -3 0
v -9 -2 0
v -8 -2 0
v -10 -3 0
v -11 -3 0
v -11 -2 0
v -10 -2 0
v -11 -3 0
v -12 -3 0
v -12 -2 0
v -11 -2 0
v -12 -3 0
v -13 -3 0
v -13 -2 0
v -12 -2 0
v -18 -3 0
v -19 -3 0
v -19 -2 0
v -18 -2 0
v -19 -3 0
v -20 -3 0
v -20 -2 0
v -19 -2 0
v 0 -4 0
v -1 -4 0
v -1 -3 0
v 0 -3 0
v -1 -4 0
v -2 -4 0
v -2 -3 0
v -1 -3 0
v -6 -4 0
v -7 -4 0
v -7 -3 0
v -6 -3 0
v -7 -4 0
v -8 -4 0
v -8 -3 0
v -7 -3 0
v -8 -4 0
v -9 -4 0
v -9 -3 0
v -8 -3 0
v -9 -4 0
v -10 -4 0
v -10 -3 0
v -9 -3 0
v -10 -4 0
v -11 -4 0
v -11 -3 0
v -10 -3 0
v -11 -4 0
v -12 -4 0
v -12 -3 0
v -11 -3 0
v -12 -4 0
v -13 -4 0
v -13 -3 0
v -12 -3 0
v -18 -4 0
v -19 -4 0
v -19 -3 0
v -18 -3 0
v -19 -4 0
v -20 -4 0
v -20 -3 0
v -19 -3 0
v 0 -5 0
v -1 -5 0
v -1 -4 0
v 0 -4 0
v -1 -5 0
v -2 -5 0
v -2 -4 0
v -1 -4 0
v -6 -5 0
v -7 -5 0
v -7 -4 0
v -6 -4 0
v -7 -5 0
v -8 -5 0
v -8 -4 0
v -7 -4 0
v -8 -5 0
v -9 -5 0
v -9 -4 0
v -8 -4 0
v -9 -5 0
v -10 -5 0
v -10 -4 0
v -9 -4 0
v -10 -5 0
v -11 -5 0
v -11 -4 0
v -10 -4 0
v -11 -5 0
v -12 -5 0
v -12 -4 0
v -11 -4 0
v -12 -5 0
v -13 -5 0
v -13 -4 0
v -12 -4 0
v -18 -5 0
v -19 -5 0
v -19 -4 0
v -18 -4 0
v -19 -5 0
v -20 -5 0
v -20 -4 0
v -19 -4 0
v 0 -6 0
v -1 -6 0
v -1 -5 0
v 0 -5 0
v -1 -6 0
v -2 -6 0
v -2 -5 0
v -1 -5 0
v -18 -6 0
v -19 -6 0
v -19 -5 0
v -18 -5 0
v -19 -6 0
v -20 -6 0
v -20 -5 0
v -19 -5 0
v 0 -7 0
v -1 -7 0
v -1 -6 0
v 0 -6 0
v -1 -7 0
v -2 -7 0
v -2 -6 0
v -1 -6 0
v -18 -7 0
v -19 -7 0
v -19 -6 0
v -18 -6 0
v -19 -7 0
v -20 -7 0
v -20 -6 0
v -19 -6 0
v 0 -8 0
v -1 -8 0
v -1 -7 0
v 0 -7 0
v -1 -8 0
v -2 -8 0
v -2 -7 0
v -1 -7 0
v -18 -8 0
v -19 -8 0
v -19 -7 0
v -18 -7 0
v -19 -8 0
v -20 -8 0
v -20 -7 0
v -19 -7 0
v 0 -9 0
v -1 -9 0
v -1 -8 0
v 0 -8 0
v -1 -9 0
v -2 -9 0
v -2 -8 0
v -1 -8 0
v -18 -9 0
v -19 -9 0
v -19 -8 0
v -18 -8 0
v -19 -9 0
v -20 -9 0
v -20 -8 0
v -19 -8 0
v 0 -10 0
v -1 -10 0
v -1 -9 0
v 0 -9 0
v -1 -10 0
v -2 -10 0
v -2 -9 0
v -1 -9 0
v -18 -10 0
v -19 -10 0
v -19 -9 0
v -18 -9 0
v -19 -10 0
v -20 -10 0
v -20 -9 0
v -19 -9 0
v 0 -11 0
v -1 -11 0
v -1 -10 0
v 0 -10 0
v -1 -11 0
v -2 -11 0
v -2 -10 0
v -1 -10 0
v -18 -11 0
v -19 -11 0
v -19 -10 0
v -18 -10 0
v -19 -11 0
v -20 -11 0
v -20 -10 0
v -19 -10 0
v 0 -12 0
v -1 -12 0
v -1 -11 0
v 0 -11 0
v -1 -12 0
v -2 -12 0
v -2 -11 0
v -1 -11 0
v -18 -12 0
v -19 -12 0
v -19 -11 0
v -18 -11 0
v -19 -12 0
v -20 -12 0
v -20 -11 0
v -19 -11 0
v 0 -13 0
v -1 -13 0
v -1 -12 0
v 0 -12 0
v -1 -13 0
v -2 -13 0
v -2 -12 0
v -1 -12 0
v -18 -13 0
v -19 -13 0
v -19 -12 0
v -18 -12 0
v -19 -13 0
v -20 -13 0
v -20 -12 0
v -19 -12 0
v 0 -14 0
v -1 -14 0
v -1 -13 0
v 0 -13 0
v -1 -14 0
v -2 -14 0
v -2 -13 0
v -1 -13 0
v -18 -14 0
v -19 -14 0
v -19 -13 0
v -18 -13 0
v -19 -14 0
v -20 -14 0
v -20 -13 0
v -19 -13 0
v 0 -15 0
v -1 -15 0
v -1 -14 0
v 0 -14 0
v -1 -15 0
v -2 -15 0
v -2 -14 0
v -1 -14 0
v -18 -15 0
v -19 -15 0
v -19 -14 0
v -18 -14 0
v -19 -15 0
v -20 -15 0
v -20 -14 0
v -19 -14 0
v 0 -16 0
v -1 -16 0
v -1 -15 0
v 0 -15 0
v -1 -16 0
v -2 -16 0
v -2 -15 0
v -1 -15 0
v -18 -16 0
v -19 -16 0
v -19 -15 0
v -18 -15 0
v -19 -16 0
v -20 -16 0
v -20 -15 0
v -19 -15 0
v 0 -17 0
v -1 -17 0
v -1 -16 0
v 0 -16 0
v -1 -17 0
v -2 -17 0
v -2 -16 0
v -1 -16 0
v -18 -17 0
v -19 -17 0
v -19 -16 0
v -18 -16 0
v -19 -17 0
v -20 -17 0
v -20 -16 0
v -19 -16 0
v 0 -18 0
v -1 -18 0
v -1 -17 0
v 0 -17 0
v -1 -18 0
v -2 -18 0
v -2 -17 0
v -1 -17 0
v -18 -18 0
v -19 -18 0
v -19 -17 0
v -18 -17 0
v -19 -18 0
v -20 -18 0
v -20 -17 0
v -19 -17 0
v 0 -19 0
v -1 -19 0
v -1 -18 0
v 0 -18 0
v -1 -19 0
v -2 -19 0
v -2 -18 0
v -1 -18 0
v -2 -19 0
v -3 -19 0
v -3 -18 0
v -2 -18 0
v -3 -19 0
v -4 -19 0
v -4 -18 0
v -3 -18 0
v -4 -19 0
v -5 -19 0
v -5 -18 0
v -4 -18 0
v -5 -19 0
v -6 -19 0
v -6 -18 0
v -5 -18 0
v -6 -19 0
v -7 -19 0
v -7 -18 0
v -6 -18 0
v -7 -19 0
v -8 -19 0
v -8 -18 0
v -7 -18 0
v -8 -19 0
v -9 -19 0
v -9 -18 0
v -8 -18 0
v -9 -19 0
v -10 -19 0
v -10 -18 0
v -9 -18 0
v -10 -19 0
v -11 -19 0
v -11 -18 0
v -10 -18 0
v -11 -19 0
v -12 -19 0
v -12 -18 0
v -11 -18 0
v -12 -19 0
v -13 -19 0
v -13 -18 0
v -12 -18 0
v -13 -19 0
v -14 -19 0
v -14 -18 0
v -13 -18 0
v -14 -19 0
v -15 -19 0
v -15 -18 0
v -14 -18 0
v -15 -19 0
v -16 -19 0
v -16 -18 0
v -15 -18 0
v -16 -19 0
v -17 -19 0
v -17 -18 0
v -16 -18 0
v -17 -19 0
v -18 -19 0
v -18 -18 0
v -17 -18 0
v -18 -19 0
v -19 -19 0
v -19 -18 0
v -18 -18 0
v -19 -19 0
v -20 -19 0
v -20 -18 0
v -19 -18 0
v 0 -20 0
v -1 -20 0
v -1 -19 0
v 0 -19 0
v -1 -20 0
v -2 -20 0
v -2 -19 0
v -1 -19 0
v -2 -20 0
v -3 -20 0
v -3 -19 0
v -2 -19 0
v -3 -20 0
v -4 -20 0
v -4 -19 0
v -3 -19 0
v -4 -20 0
v -5 -20 0
v -5 -19 0
v -4 -19 0
v -5 -20 0
v -6 -20 0
v -6 -19 0
v -5 -19 0
v -6 -20 0
v -7 -20 0
v -7 -19 0
v -6 -19 0
v -7 -20 0
v -8 -20 0
v -8 -19 0
v -7 -19 0
v -8 -20 0
v -9 -20 0
v -9 -19 0
v -8 -19 0
v -9 -20 0
v -10 -20 0
v -10 -19 0
v -9 -19 0
v -10 -20 0
v -11 -20 0
v -11 -19 0
v -10 -19 0
v -11 -20 0
v -12 -20 0
v -12 -19 0
v -11 -19 0
v -12 -20 0
v -13 -20 0
v -13 -19 0
v -12 -19 0
v -13 -20 0
v -14 -20 0
v -14 -19 0
v -13 -19 0
v -14 -20 0
v -15 -20 0
v -15 -19 0
v -14 -19 0
v -15 -20 0
v -16 -20 0
v -16 -19 0
v -15 -19 0
v -16 -20 0
v -17 -20 0
v -17 -19 0
v -16 -19 0
v -17 -20 0
v -18 -20 0
v -18 -19 0
v -17 -19 0
v -18 -20 0
v -19 -20 0
v -19 -19 0
v -18 -19 0
v -19 -20 0
v -20 -20 0
v -20 -19 0
v -19 -19 0

# Texture cooridinates (Count = 43)
vt 0.125 0.5277778
vt 0.15 0.5277778
vt 0.15 0.5555556
vt 0.125 0.5555556
vt 0.175 0.5277778
vt 0.175 0.5555556
vt 0.125 0.4722222
vt 0.15 0.4722222
vt 0.15 0.5
vt 0.125 0.5
vt 0.1 0.6944444
vt 0.125 0.6944444
vt 0.125 0.7222222
vt 0.1 0.7222222
vt 0.15 0.6944444
vt 0.15 0.7222222
vt 0.175 0.6944444
vt 0.175 0.7222222
vt 0.175 0.4722222
vt 0.175 0.5
vt 0.2 0.4722222
vt 0.2 0.5
vt 0.125 0.4444444
vt 0.15 0.4444444
vt 0.1 0.6666666
vt 0.125 0.6666666
vt 0.15 0.6666666
vt 0.175 0.6666666
vt 0.1 0.6388889
vt 0.125 0.6388889
vt 0.15 0.6388889
vt 0.175 0.6388889
vt 0.1 0.6111111
vt 0.125 0.6111111
vt 0.15 0.6111111
vt 0.175 0.6111111
vt 0.2 0.6111111
vt 0.2 0.6388889
vt 0.1 0.5833334
vt 0.125 0.5833334
vt 0.15 0.5833334
vt 0.175 0.5833334
vt 0.2 0.5833334

# Normal
vn 0 0 -1

# Mesh description
g BosqueInicio_mesh_0005

# Faces
f 1/1/1 2/2/1 3/3/1 4/4/1
f 5/2/1 6/5/1 7/6/1 8/3/1
f 9/1/1 10/2/1 11/3/1 12/4/1
f 13/7/1 14/8/1 15/9/1 16/10/1
f 17/7/1 18/8/1 19/9/1 20/10/1
f 21/2/1 22/5/1 23/6/1 24/3/1
f 25/11/1 26/12/1 27/13/1 28/14/1
f 29/12/1 30/15/1 31/16/1 32/13/1
f 33/15/1 34/17/1 35/18/1 36/16/1
f 37/11/1 38/12/1 39/13/1 40/14/1
f 41/12/1 42/15/1 43/16/1 44/13/1
f 45/15/1 46/17/1 47/18/1 48/16/1
f 49/1/1 50/2/1 51/3/1 52/4/1
f 53/7/1 54/8/1 55/9/1 56/10/1
f 57/7/1 58/8/1 59/9/1 60/10/1
f 61/7/1 62/8/1 63/9/1 64/10/1
f 65/2/1 66/5/1 67/6/1 68/3/1
f 69/1/1 70/2/1 71/3/1 72/4/1
f 73/2/1 74/5/1 75/6/1 76/3/1
f 77/8/1 78/19/1 79/20/1 80/9/1
f 81/19/1 82/21/1 83/22/1 84/20/1
f 85/10/1 86/9/1 87/2/1 88/1/1
f 89/23/1 90/24/1 91/8/1 92/7/1
f 93/23/1 94/24/1 95/8/1 96/7/1
f 97/9/1 98/20/1 99/5/1 100/2/1
f 101/25/1 102/26/1 103/12/1 104/11/1
f 105/26/1 106/27/1 107/15/1 108/12/1
f 109/27/1 110/28/1 111/17/1 112/15/1
f 113/25/1 114/26/1 115/12/1 116/11/1
f 117/26/1 118/27/1 119/15/1 120/12/1
f 121/27/1 122/28/1 123/17/1 124/15/1
f 125/10/1 126/9/1 127/2/1 128/1/1
f 129/23/1 130/24/1 131/8/1 132/7/1
f 133/23/1 134/24/1 135/8/1 136/7/1
f 137/23/1 138/24/1 139/8/1 140/7/1
f 141/9/1 142/20/1 143/5/1 144/2/1
f 145/8/1 146/19/1 147/20/1 148/9/1
f 149/19/1 150/21/1 151/22/1 152/20/1
f 153/8/1 154/19/1 155/20/1 156/9/1
f 157/19/1 158/21/1 159/22/1 160/20/1
f 161/29/1 162/30/1 163/26/1 164/25/1
f 165/30/1 166/31/1 167/27/1 168/26/1
f 169/31/1 170/32/1 171/28/1 172/27/1
f 173/29/1 174/30/1 175/26/1 176/25/1
f 177/30/1 178/31/1 179/27/1 180/26/1
f 181/31/1 182/32/1 183/28/1 184/27/1
f 185/8/1 186/19/1 187/20/1 188/9/1
f 189/19/1 190/21/1 191/22/1 192/20/1
f 193/8/1 194/19/1 195/20/1 196/9/1
f 197/19/1 198/21/1 199/22/1 200/20/1
f 201/33/1 202/34/1 203/30/1 204/29/1
f 205/34/1 206/35/1 207/31/1 208/30/1
f 209/35/1 210/36/1 211/32/1 212/31/1
f 213/36/1 214/37/1 215/38/1 216/32/1
f 217/33/1 218/34/1 219/30/1 220/29/1
f 221/34/1 222/35/1 223/31/1 224/30/1
f 225/35/1 226/36/1 227/32/1 228/31/1
f 229/8/1 230/19/1 231/20/1 232/9/1
f 233/19/1 234/21/1 235/22/1 236/20/1
f 237/8/1 238/19/1 239/20/1 240/9/1
f 241/19/1 242/21/1 243/22/1 244/20/1
f 245/39/1 246/40/1 247/34/1 248/33/1
f 249/40/1 250/41/1 251/35/1 252/34/1
f 253/41/1 254/42/1 255/36/1 256/35/1
f 257/42/1 258/43/1 259/37/1 260/36/1
f 261/39/1 262/40/1 263/34/1 264/33/1
f 265/40/1 266/41/1 267/35/1 268/34/1
f 269/41/1 270/42/1 271/36/1 272/35/1
f 273/8/1 274/19/1 275/20/1 276/9/1
f 277/19/1 278/21/1 279/22/1 280/20/1
f 281/8/1 282/19/1 283/20/1 284/9/1
f 285/19/1 286/21/1 287/22/1 288/20/1
f 289/8/1 290/19/1 291/20/1 292/9/1
f 293/19/1 294/21/1 295/22/1 296/20/1
f 297/8/1 298/19/1 299/20/1 300/9/1
f 301/19/1 302/21/1 303/22/1 304/20/1
f 305/8/1 306/19/1 307/20/1 308/9/1
f 309/19/1 310/21/1 311/22/1 312/20/1
f 313/8/1 314/19/1 315/20/1 316/9/1
f 317/19/1 318/21/1 319/22/1 320/20/1
f 321/8/1 322/19/1 323/20/1 324/9/1
f 325/19/1 326/21/1 327/22/1 328/20/1
f 329/8/1 330/19/1 331/20/1 332/9/1
f 333/19/1 334/21/1 335/22/1 336/20/1
f 337/8/1 338/19/1 339/20/1 340/9/1
f 341/19/1 342/21/1 343/22/1 344/20/1
f 345/8/1 346/19/1 347/20/1 348/9/1
f 349/19/1 350/21/1 351/22/1 352/20/1
f 353/8/1 354/19/1 355/20/1 356/9/1
f 357/19/1 358/21/1 359/22/1 360/20/1
f 361/8/1 362/19/1 363/20/1 364/9/1
f 365/19/1 366/21/1 367/22/1 368/20/1
f 369/8/1 370/19/1 371/20/1 372/9/1
f 373/19/1 374/21/1 375/22/1 376/20/1
f 377/8/1 378/19/1 379/20/1 380/9/1
f 381/19/1 382/21/1 383/22/1 384/20/1
f 385/8/1 386/19/1 387/20/1 388/9/1
f 389/19/1 390/21/1 391/22/1 392/20/1
f 393/8/1 394/19/1 395/20/1 396/9/1
f 397/19/1 398/21/1 399/22/1 400/20/1
f 401/8/1 402/19/1 403/20/1 404/9/1
f 405/19/1 406/21/1 407/22/1 408/20/1
f 409/8/1 410/19/1 411/20/1 412/9/1
f 413/19/1 414/21/1 415/22/1 416/20/1
f 417/8/1 418/19/1 419/20/1 420/9/1
f 421/19/1 422/21/1 423/22/1 424/20/1
f 425/8/1 426/19/1 427/20/1 428/9/1
f 429/19/1 430/21/1 431/22/1 432/20/1
f 433/8/1 434/19/1 435/20/1 436/9/1
f 437/19/1 438/21/1 439/22/1 440/20/1
f 441/8/1 442/19/1 443/20/1 444/9/1
f 445/19/1 446/21/1 447/22/1 448/20/1
f 449/8/1 450/19/1 451/20/1 452/9/1
f 453/19/1 454/21/1 455/22/1 456/20/1
f 457/8/1 458/19/1 459/20/1 460/9/1
f 461/19/1 462/21/1 463/22/1 464/20/1
f 465/8/1 466/19/1 467/20/1 468/9/1
f 469/19/1 470/21/1 471/22/1 472/20/1
f 473/8/1 474/19/1 475/20/1 476/9/1
f 477/19/1 478/21/1 479/22/1 480/20/1
f 481/8/1 482/19/1 483/20/1 484/9/1
f 485/19/1 486/21/1 487/22/1 488/20/1
f 489/8/1 490/19/1 491/20/1 492/9/1
f 493/19/1 494/21/1 495/22/1 496/20/1
f 497/1/1 498/2/1 499/3/1 500/4/1
f 501/7/1 502/8/1 503/9/1 504/10/1
f 505/7/1 506/8/1 507/9/1 508/10/1
f 509/7/1 510/8/1 511/9/1 512/10/1
f 513/7/1 514/8/1 515/9/1 516/10/1
f 517/7/1 518/8/1 519/9/1 520/10/1
f 521/7/1 522/8/1 523/9/1 524/10/1
f 525/7/1 526/8/1 527/9/1 528/10/1
f 529/7/1 530/8/1 531/9/1 532/10/1
f 533/7/1 534/8/1 535/9/1 536/10/1
f 537/7/1 538/8/1 539/9/1 540/10/1
f 541/7/1 542/8/1 543/9/1 544/10/1
f 545/7/1 546/8/1 547/9/1 548/10/1
f 549/7/1 550/8/1 551/9/1 552/10/1
f 553/7/1 554/8/1 555/9/1 556/10/1
f 557/2/1 558/5/1 559/6/1 560/3/1
f 561/8/1 562/19/1 563/20/1 564/9/1
f 565/19/1 566/21/1 567/22/1 568/20/1
f 569/10/1 570/9/1 571/2/1 572/1/1
f 573/9/1 574/20/1 575/5/1 576/2/1
f 577/10/1 578/9/1 579/2/1 580/1/1
f 581/23/1 582/24/1 583/8/1 584/7/1
f 585/23/1 586/24/1 587/8/1 588/7/1
f 589/23/1 590/24/1 591/8/1 592/7/1
f 593/23/1 594/24/1 595/8/1 596/7/1
f 597/23/1 598/24/1 599/8/1 600/7/1
f 601/23/1 602/24/1 603/8/1 604/7/1
f 605/23/1 606/24/1 607/8/1 608/7/1
f 609/23/1 610/24/1 611/8/1 612/7/1
f 613/23/1 614/24/1 615/8/1 616/7/1
f 617/23/1 618/24/1 619/8/1 620/7/1
f 621/23/1 622/24/1 623/8/1 624/7/1
f 625/23/1 626/24/1 627/8/1 628/7/1
f 629/23/1 630/24/1 631/8/1 632/7/1
f 633/23/1 634/24/1 635/8/1 636/7/1
f 637/9/1 638/20/1 639/5/1 640/2/1
f 641/10/1 642/9/1 643/2/1 644/1/1
f 645/9/1 646/20/1 647/5/1 648/2/1

