# Tiled2Unity generated file. Do not modify by hand.
# Wavefront file for 'BosqueInicio_mesh_0006.obj'

# Vertices (Count = 12)
v -9 -1 0
v -10 -1 0
v -10 0 0
v -9 0 0
v -9 -2 0
v -10 -2 0
v -10 -1 0
v -9 -1 0
v -9 -3 0
v -10 -3 0
v -10 -2 0
v -9 -2 0

# Texture cooridinates (Count = 10)
vt 0.175 0.84
vt 0.2 0.84
vt 0.2 0.88
vt 0.175 0.88
vt 0.25 0.76
vt 0.275 0.76
vt 0.275 0.8
vt 0.25 0.8
vt 0.25 0.72
vt 0.275 0.72

# Normal
vn 0 0 -1

# Mesh description
g BosqueInicio_mesh_0006

# Faces
f 1/1/1 2/2/1 3/3/1 4/4/1
f 5/5/1 6/6/1 7/7/1 8/8/1
f 9/9/1 10/10/1 11/6/1 12/5/1

