# Tiled2Unity generated file. Do not modify by hand.
# Wavefront file for 'BosqueInicio_mesh_0008.obj'

# Vertices (Count = 112)
v -6 -6 0
v -7 -6 0
v -7 -5 0
v -6 -5 0
v -6 -7 0
v -7 -7 0
v -7 -6 0
v -6 -6 0
v -6 -8 0
v -7 -8 0
v -7 -7 0
v -6 -7 0
v -7 -8 0
v -8 -8 0
v -8 -7 0
v -7 -7 0
v -8 -8 0
v -9 -8 0
v -9 -7 0
v -8 -7 0
v -9 -8 0
v -10 -8 0
v -10 -7 0
v -9 -7 0
v -10 -8 0
v -11 -8 0
v -11 -7 0
v -10 -7 0
v -11 -8 0
v -12 -8 0
v -12 -7 0
v -11 -7 0
v -12 -8 0
v -13 -8 0
v -13 -7 0
v -12 -7 0
v -13 -8 0
v -14 -8 0
v -14 -7 0
v -13 -7 0
v -4 -12 0
v -5 -12 0
v -5 -11 0
v -4 -11 0
v -5 -12 0
v -6 -12 0
v -6 -11 0
v -5 -11 0
v -6 -12 0
v -7 -12 0
v -7 -11 0
v -6 -11 0
v -13 -12 0
v -14 -12 0
v -14 -11 0
v -13 -11 0
v -14 -12 0
v -15 -12 0
v -15 -11 0
v -14 -11 0
v -15 -12 0
v -16 -12 0
v -16 -11 0
v -15 -11 0
v -6 -13 0
v -7 -13 0
v -7 -12 0
v -6 -12 0
v -13 -13 0
v -14 -13 0
v -14 -12 0
v -13 -12 0
v -6 -14 0
v -7 -14 0
v -7 -13 0
v -6 -13 0
v -13 -14 0
v -14 -14 0
v -14 -13 0
v -13 -13 0
v -6 -15 0
v -7 -15 0
v -7 -14 0
v -6 -14 0
v -13 -15 0
v -14 -15 0
v -14 -14 0
v -13 -14 0
v -6 -16 0
v -7 -16 0
v -7 -15 0
v -6 -15 0
v -13 -16 0
v -14 -16 0
v -14 -15 0
v -13 -15 0
v -6 -17 0
v -7 -17 0
v -7 -16 0
v -6 -16 0
v -13 -17 0
v -14 -17 0
v -14 -16 0
v -13 -16 0
v -6 -18 0
v -7 -18 0
v -7 -17 0
v -6 -17 0
v -13 -18 0
v -14 -18 0
v -14 -17 0
v -13 -17 0

# Texture cooridinates (Count = 18)
vt 0 0.5833334
vt 0.025 0.5833334
vt 0.025 0.6111111
vt 0 0.6111111
vt 0.05 0.5833334
vt 0.05 0.6111111
vt 0.025 0.5555556
vt 0.05 0.5555556
vt 0.075 0.6111111
vt 0.075 0.6388889
vt 0.05 0.6388889
vt 0.025 0.5277778
vt 0.05 0.5277778
vt 0 0.5277778
vt 0 0.5555556
vt 0.1 0.6111111
vt 0.1 0.6388889
vt 0.025 0.6388889

# Normal
vn 0 0 -1

# Mesh description
g BosqueInicio_mesh_0008

# Faces
f 1/1/1 2/2/1 3/3/1 4/4/1
f 5/2/1 6/5/1 7/6/1 8/3/1
f 9/7/1 10/8/1 11/5/1 12/2/1
f 13/6/1 14/9/1 15/10/1 16/11/1
f 17/6/1 18/9/1 19/10/1 20/11/1
f 21/6/1 22/9/1 23/10/1 24/11/1
f 25/6/1 26/9/1 27/10/1 28/11/1
f 29/6/1 30/9/1 31/10/1 32/11/1
f 33/6/1 34/9/1 35/10/1 36/11/1
f 37/12/1 38/13/1 39/8/1 40/7/1
f 41/14/1 42/12/1 43/7/1 44/15/1
f 45/6/1 46/9/1 47/10/1 48/11/1
f 49/9/1 50/16/1 51/17/1 52/10/1
f 53/3/1 54/6/1 55/11/1 56/18/1
f 57/6/1 58/9/1 59/10/1 60/11/1
f 61/12/1 62/13/1 63/8/1 64/7/1
f 65/2/1 66/5/1 67/6/1 68/3/1
f 69/2/1 70/5/1 71/6/1 72/3/1
f 73/2/1 74/5/1 75/6/1 76/3/1
f 77/2/1 78/5/1 79/6/1 80/3/1
f 81/2/1 82/5/1 83/6/1 84/3/1
f 85/2/1 86/5/1 87/6/1 88/3/1
f 89/2/1 90/5/1 91/6/1 92/3/1
f 93/2/1 94/5/1 95/6/1 96/3/1
f 97/2/1 98/5/1 99/6/1 100/3/1
f 101/2/1 102/5/1 103/6/1 104/3/1
f 105/15/1 106/7/1 107/2/1 108/1/1
f 109/15/1 110/7/1 111/2/1 112/1/1

