# Tiled2Unity generated file. Do not modify by hand.
# Wavefront file for 'EntradaBosque_mesh_0002.obj'

# Vertices (Count = 1012)
v 0 -1 0
v -1 -1 0
v -1 0 0
v 0 0 0
v -1 -1 0
v -2 -1 0
v -2 0 0
v -1 0 0
v -2 -1 0
v -3 -1 0
v -3 0 0
v -2 0 0
v -3 -1 0
v -4 -1 0
v -4 0 0
v -3 0 0
v -4 -1 0
v -5 -1 0
v -5 0 0
v -4 0 0
v -5 -1 0
v -6 -1 0
v -6 0 0
v -5 0 0
v -6 -1 0
v -7 -1 0
v -7 0 0
v -6 0 0
v -7 -1 0
v -8 -1 0
v -8 0 0
v -7 0 0
v -8 -1 0
v -9 -1 0
v -9 0 0
v -8 0 0
v -9 -1 0
v -10 -1 0
v -10 0 0
v -9 0 0
v -10 -1 0
v -11 -1 0
v -11 0 0
v -10 0 0
v -11 -1 0
v -12 -1 0
v -12 0 0
v -11 0 0
v -12 -1 0
v -13 -1 0
v -13 0 0
v -12 0 0
v -13 -1 0
v -14 -1 0
v -14 0 0
v -13 0 0
v -14 -1 0
v -15 -1 0
v -15 0 0
v -14 0 0
v -15 -1 0
v -16 -1 0
v -16 0 0
v -15 0 0
v -16 -1 0
v -17 -1 0
v -17 0 0
v -16 0 0
v -17 -1 0
v -18 -1 0
v -18 0 0
v -17 0 0
v -18 -1 0
v -19 -1 0
v -19 0 0
v -18 0 0
v -19 -1 0
v -20 -1 0
v -20 0 0
v -19 0 0
v -20 -1 0
v -21 -1 0
v -21 0 0
v -20 0 0
v -21 -1 0
v -22 -1 0
v -22 0 0
v -21 0 0
v -22 -1 0
v -23 -1 0
v -23 0 0
v -22 0 0
v -23 -1 0
v -24 -1 0
v -24 0 0
v -23 0 0
v -24 -1 0
v -25 -1 0
v -25 0 0
v -24 0 0
v 0 -2 0
v -1 -2 0
v -1 -1 0
v 0 -1 0
v -1 -2 0
v -2 -2 0
v -2 -1 0
v -1 -1 0
v -2 -2 0
v -3 -2 0
v -3 -1 0
v -2 -1 0
v -3 -2 0
v -4 -2 0
v -4 -1 0
v -3 -1 0
v -4 -2 0
v -5 -2 0
v -5 -1 0
v -4 -1 0
v -5 -2 0
v -6 -2 0
v -6 -1 0
v -5 -1 0
v -6 -2 0
v -7 -2 0
v -7 -1 0
v -6 -1 0
v -7 -2 0
v -8 -2 0
v -8 -1 0
v -7 -1 0
v -8 -2 0
v -9 -2 0
v -9 -1 0
v -8 -1 0
v -9 -2 0
v -10 -2 0
v -10 -1 0
v -9 -1 0
v -10 -2 0
v -11 -2 0
v -11 -1 0
v -10 -1 0
v -11 -2 0
v -12 -2 0
v -12 -1 0
v -11 -1 0
v -12 -2 0
v -13 -2 0
v -13 -1 0
v -12 -1 0
v -13 -2 0
v -14 -2 0
v -14 -1 0
v -13 -1 0
v -14 -2 0
v -15 -2 0
v -15 -1 0
v -14 -1 0
v -15 -2 0
v -16 -2 0
v -16 -1 0
v -15 -1 0
v -16 -2 0
v -17 -2 0
v -17 -1 0
v -16 -1 0
v -17 -2 0
v -18 -2 0
v -18 -1 0
v -17 -1 0
v -18 -2 0
v -19 -2 0
v -19 -1 0
v -18 -1 0
v -19 -2 0
v -20 -2 0
v -20 -1 0
v -19 -1 0
v -20 -2 0
v -21 -2 0
v -21 -1 0
v -20 -1 0
v -21 -2 0
v -22 -2 0
v -22 -1 0
v -21 -1 0
v -22 -2 0
v -23 -2 0
v -23 -1 0
v -22 -1 0
v -23 -2 0
v -24 -2 0
v -24 -1 0
v -23 -1 0
v -24 -2 0
v -25 -2 0
v -25 -1 0
v -24 -1 0
v 0 -3 0
v -1 -3 0
v -1 -2 0
v 0 -2 0
v -1 -3 0
v -2 -3 0
v -2 -2 0
v -1 -2 0
v -23 -3 0
v -24 -3 0
v -24 -2 0
v -23 -2 0
v -24 -3 0
v -25 -3 0
v -25 -2 0
v -24 -2 0
v 0 -4 0
v -1 -4 0
v -1 -3 0
v 0 -3 0
v -1 -4 0
v -2 -4 0
v -2 -3 0
v -1 -3 0
v -23 -4 0
v -24 -4 0
v -24 -3 0
v -23 -3 0
v -24 -4 0
v -25 -4 0
v -25 -3 0
v -24 -3 0
v 0 -5 0
v -1 -5 0
v -1 -4 0
v 0 -4 0
v -1 -5 0
v -2 -5 0
v -2 -4 0
v -1 -4 0
v -12 -5 0
v -13 -5 0
v -13 -4 0
v -12 -4 0
v -13 -5 0
v -14 -5 0
v -14 -4 0
v -13 -4 0
v -14 -5 0
v -15 -5 0
v -15 -4 0
v -14 -4 0
v -23 -5 0
v -24 -5 0
v -24 -4 0
v -23 -4 0
v -24 -5 0
v -25 -5 0
v -25 -4 0
v -24 -4 0
v 0 -6 0
v -1 -6 0
v -1 -5 0
v 0 -5 0
v -1 -6 0
v -2 -6 0
v -2 -5 0
v -1 -5 0
v -12 -6 0
v -13 -6 0
v -13 -5 0
v -12 -5 0
v -13 -6 0
v -14 -6 0
v -14 -5 0
v -13 -5 0
v -14 -6 0
v -15 -6 0
v -15 -5 0
v -14 -5 0
v -23 -6 0
v -24 -6 0
v -24 -5 0
v -23 -5 0
v -24 -6 0
v -25 -6 0
v -25 -5 0
v -24 -5 0
v 0 -7 0
v -1 -7 0
v -1 -6 0
v 0 -6 0
v -1 -7 0
v -2 -7 0
v -2 -6 0
v -1 -6 0
v -12 -7 0
v -13 -7 0
v -13 -6 0
v -12 -6 0
v -13 -7 0
v -14 -7 0
v -14 -6 0
v -13 -6 0
v -14 -7 0
v -15 -7 0
v -15 -6 0
v -14 -6 0
v -23 -7 0
v -24 -7 0
v -24 -6 0
v -23 -6 0
v -24 -7 0
v -25 -7 0
v -25 -6 0
v -24 -6 0
v 0 -8 0
v -1 -8 0
v -1 -7 0
v 0 -7 0
v -1 -8 0
v -2 -8 0
v -2 -7 0
v -1 -7 0
v -10 -8 0
v -11 -8 0
v -11 -7 0
v -10 -7 0
v -11 -8 0
v -12 -8 0
v -12 -7 0
v -11 -7 0
v -12 -8 0
v -13 -8 0
v -13 -7 0
v -12 -7 0
v -13 -8 0
v -14 -8 0
v -14 -7 0
v -13 -7 0
v -14 -8 0
v -15 -8 0
v -15 -7 0
v -14 -7 0
v -15 -8 0
v -16 -8 0
v -16 -7 0
v -15 -7 0
v -16 -8 0
v -17 -8 0
v -17 -7 0
v -16 -7 0
v -23 -8 0
v -24 -8 0
v -24 -7 0
v -23 -7 0
v -24 -8 0
v -25 -8 0
v -25 -7 0
v -24 -7 0
v 0 -9 0
v -1 -9 0
v -1 -8 0
v 0 -8 0
v -1 -9 0
v -2 -9 0
v -2 -8 0
v -1 -8 0
v -11 -9 0
v -12 -9 0
v -12 -8 0
v -11 -8 0
v -12 -9 0
v -13 -9 0
v -13 -8 0
v -12 -8 0
v -13 -9 0
v -14 -9 0
v -14 -8 0
v -13 -8 0
v -14 -9 0
v -15 -9 0
v -15 -8 0
v -14 -8 0
v -15 -9 0
v -16 -9 0
v -16 -8 0
v -15 -8 0
v -16 -9 0
v -17 -9 0
v -17 -8 0
v -16 -8 0
v -23 -9 0
v -24 -9 0
v -24 -8 0
v -23 -8 0
v -24 -9 0
v -25 -9 0
v -25 -8 0
v -24 -8 0
v 0 -10 0
v -1 -10 0
v -1 -9 0
v 0 -9 0
v -1 -10 0
v -2 -10 0
v -2 -9 0
v -1 -9 0
v -12 -10 0
v -13 -10 0
v -13 -9 0
v -12 -9 0
v -13 -10 0
v -14 -10 0
v -14 -9 0
v -13 -9 0
v -14 -10 0
v -15 -10 0
v -15 -9 0
v -14 -9 0
v -15 -10 0
v -16 -10 0
v -16 -9 0
v -15 -9 0
v -16 -10 0
v -17 -10 0
v -17 -9 0
v -16 -9 0
v -23 -10 0
v -24 -10 0
v -24 -9 0
v -23 -9 0
v -24 -10 0
v -25 -10 0
v -25 -9 0
v -24 -9 0
v 0 -11 0
v -1 -11 0
v -1 -10 0
v 0 -10 0
v -1 -11 0
v -2 -11 0
v -2 -10 0
v -1 -10 0
v -23 -11 0
v -24 -11 0
v -24 -10 0
v -23 -10 0
v -24 -11 0
v -25 -11 0
v -25 -10 0
v -24 -10 0
v 0 -12 0
v -1 -12 0
v -1 -11 0
v 0 -11 0
v -1 -12 0
v -2 -12 0
v -2 -11 0
v -1 -11 0
v -22 -12 0
v -23 -12 0
v -23 -11 0
v -22 -11 0
v -23 -12 0
v -24 -12 0
v -24 -11 0
v -23 -11 0
v -24 -12 0
v -25 -12 0
v -25 -11 0
v -24 -11 0
v 0 -13 0
v -1 -13 0
v -1 -12 0
v 0 -12 0
v -1 -13 0
v -2 -13 0
v -2 -12 0
v -1 -12 0
v -22 -13 0
v -23 -13 0
v -23 -12 0
v -22 -12 0
v -23 -13 0
v -24 -13 0
v -24 -12 0
v -23 -12 0
v -24 -13 0
v -25 -13 0
v -25 -12 0
v -24 -12 0
v 0 -14 0
v -1 -14 0
v -1 -13 0
v 0 -13 0
v -1 -14 0
v -2 -14 0
v -2 -13 0
v -1 -13 0
v -2 -14 0
v -3 -14 0
v -3 -13 0
v -2 -13 0
v -22 -14 0
v -23 -14 0
v -23 -13 0
v -22 -13 0
v -23 -14 0
v -24 -14 0
v -24 -13 0
v -23 -13 0
v -24 -14 0
v -25 -14 0
v -25 -13 0
v -24 -13 0
v 0 -15 0
v -1 -15 0
v -1 -14 0
v 0 -14 0
v -1 -15 0
v -2 -15 0
v -2 -14 0
v -1 -14 0
v -2 -15 0
v -3 -15 0
v -3 -14 0
v -2 -14 0
v -22 -15 0
v -23 -15 0
v -23 -14 0
v -22 -14 0
v -23 -15 0
v -24 -15 0
v -24 -14 0
v -23 -14 0
v -24 -15 0
v -25 -15 0
v -25 -14 0
v -24 -14 0
v 0 -16 0
v -1 -16 0
v -1 -15 0
v 0 -15 0
v -1 -16 0
v -2 -16 0
v -2 -15 0
v -1 -15 0
v -2 -16 0
v -3 -16 0
v -3 -15 0
v -2 -15 0
v -22 -16 0
v -23 -16 0
v -23 -15 0
v -22 -15 0
v -23 -16 0
v -24 -16 0
v -24 -15 0
v -23 -15 0
v -24 -16 0
v -25 -16 0
v -25 -15 0
v -24 -15 0
v 0 -17 0
v -1 -17 0
v -1 -16 0
v 0 -16 0
v -1 -17 0
v -2 -17 0
v -2 -16 0
v -1 -16 0
v -2 -17 0
v -3 -17 0
v -3 -16 0
v -2 -16 0
v -22 -17 0
v -23 -17 0
v -23 -16 0
v -22 -16 0
v -23 -17 0
v -24 -17 0
v -24 -16 0
v -23 -16 0
v -24 -17 0
v -25 -17 0
v -25 -16 0
v -24 -16 0
v 0 -18 0
v -1 -18 0
v -1 -17 0
v 0 -17 0
v -1 -18 0
v -2 -18 0
v -2 -17 0
v -1 -17 0
v -2 -18 0
v -3 -18 0
v -3 -17 0
v -2 -17 0
v -22 -18 0
v -23 -18 0
v -23 -17 0
v -22 -17 0
v -23 -18 0
v -24 -18 0
v -24 -17 0
v -23 -17 0
v -24 -18 0
v -25 -18 0
v -25 -17 0
v -24 -17 0
v 0 -19 0
v -1 -19 0
v -1 -18 0
v 0 -18 0
v -1 -19 0
v -2 -19 0
v -2 -18 0
v -1 -18 0
v -2 -19 0
v -3 -19 0
v -3 -18 0
v -2 -18 0
v -14 -19 0
v -15 -19 0
v -15 -18 0
v -14 -18 0
v 0 -20 0
v -1 -20 0
v -1 -19 0
v 0 -19 0
v -1 -20 0
v -2 -20 0
v -2 -19 0
v -1 -19 0
v -2 -20 0
v -3 -20 0
v -3 -19 0
v -2 -19 0
v 0 -21 0
v -1 -21 0
v -1 -20 0
v 0 -20 0
v -1 -21 0
v -2 -21 0
v -2 -20 0
v -1 -20 0
v -2 -21 0
v -3 -21 0
v -3 -20 0
v -2 -20 0
v 0 -22 0
v -1 -22 0
v -1 -21 0
v 0 -21 0
v -1 -22 0
v -2 -22 0
v -2 -21 0
v -1 -21 0
v -2 -22 0
v -3 -22 0
v -3 -21 0
v -2 -21 0
v -8 -22 0
v -9 -22 0
v -9 -21 0
v -8 -21 0
v -9 -22 0
v -10 -22 0
v -10 -21 0
v -9 -21 0
v -10 -22 0
v -11 -22 0
v -11 -21 0
v -10 -21 0
v -11 -22 0
v -12 -22 0
v -12 -21 0
v -11 -21 0
v -12 -22 0
v -13 -22 0
v -13 -21 0
v -12 -21 0
v -13 -22 0
v -14 -22 0
v -14 -21 0
v -13 -21 0
v -14 -22 0
v -15 -22 0
v -15 -21 0
v -14 -21 0
v -15 -22 0
v -16 -22 0
v -16 -21 0
v -15 -21 0
v -16 -22 0
v -17 -22 0
v -17 -21 0
v -16 -21 0
v -17 -22 0
v -18 -22 0
v -18 -21 0
v -17 -21 0
v -23 -22 0
v -24 -22 0
v -24 -21 0
v -23 -21 0
v -24 -22 0
v -25 -22 0
v -25 -21 0
v -24 -21 0
v 0 -23 0
v -1 -23 0
v -1 -22 0
v 0 -22 0
v -1 -23 0
v -2 -23 0
v -2 -22 0
v -1 -22 0
v -2 -23 0
v -3 -23 0
v -3 -22 0
v -2 -22 0
v -3 -23 0
v -4 -23 0
v -4 -22 0
v -3 -22 0
v -4 -23 0
v -5 -23 0
v -5 -22 0
v -4 -22 0
v -5 -23 0
v -6 -23 0
v -6 -22 0
v -5 -22 0
v -6 -23 0
v -7 -23 0
v -7 -22 0
v -6 -22 0
v -7 -23 0
v -8 -23 0
v -8 -22 0
v -7 -22 0
v -8 -23 0
v -9 -23 0
v -9 -22 0
v -8 -22 0
v -9 -23 0
v -10 -23 0
v -10 -22 0
v -9 -22 0
v -10 -23 0
v -11 -23 0
v -11 -22 0
v -10 -22 0
v -11 -23 0
v -12 -23 0
v -12 -22 0
v -11 -22 0
v -12 -23 0
v -13 -23 0
v -13 -22 0
v -12 -22 0
v -13 -23 0
v -14 -23 0
v -14 -22 0
v -13 -22 0
v -14 -23 0
v -15 -23 0
v -15 -22 0
v -14 -22 0
v -15 -23 0
v -16 -23 0
v -16 -22 0
v -15 -22 0
v -16 -23 0
v -17 -23 0
v -17 -22 0
v -16 -22 0
v -17 -23 0
v -18 -23 0
v -18 -22 0
v -17 -22 0
v -18 -23 0
v -19 -23 0
v -19 -22 0
v -18 -22 0
v -19 -23 0
v -20 -23 0
v -20 -22 0
v -19 -22 0
v -20 -23 0
v -21 -23 0
v -21 -22 0
v -20 -22 0
v -21 -23 0
v -22 -23 0
v -22 -22 0
v -21 -22 0
v -22 -23 0
v -23 -23 0
v -23 -22 0
v -22 -22 0
v -23 -23 0
v -24 -23 0
v -24 -22 0
v -23 -22 0
v -24 -23 0
v -25 -23 0
v -25 -22 0
v -24 -22 0
v 0 -24 0
v -1 -24 0
v -1 -23 0
v 0 -23 0
v -1 -24 0
v -2 -24 0
v -2 -23 0
v -1 -23 0
v -2 -24 0
v -3 -24 0
v -3 -23 0
v -2 -23 0
v -3 -24 0
v -4 -24 0
v -4 -23 0
v -3 -23 0
v -4 -24 0
v -5 -24 0
v -5 -23 0
v -4 -23 0
v -5 -24 0
v -6 -24 0
v -6 -23 0
v -5 -23 0
v -6 -24 0
v -7 -24 0
v -7 -23 0
v -6 -23 0
v -7 -24 0
v -8 -24 0
v -8 -23 0
v -7 -23 0
v -8 -24 0
v -9 -24 0
v -9 -23 0
v -8 -23 0
v -9 -24 0
v -10 -24 0
v -10 -23 0
v -9 -23 0
v -10 -24 0
v -11 -24 0
v -11 -23 0
v -10 -23 0
v -11 -24 0
v -12 -24 0
v -12 -23 0
v -11 -23 0
v -12 -24 0
v -13 -24 0
v -13 -23 0
v -12 -23 0
v -13 -24 0
v -14 -24 0
v -14 -23 0
v -13 -23 0
v -14 -24 0
v -15 -24 0
v -15 -23 0
v -14 -23 0
v -15 -24 0
v -16 -24 0
v -16 -23 0
v -15 -23 0
v -16 -24 0
v -17 -24 0
v -17 -23 0
v -16 -23 0
v -17 -24 0
v -18 -24 0
v -18 -23 0
v -17 -23 0
v -18 -24 0
v -19 -24 0
v -19 -23 0
v -18 -23 0
v -19 -24 0
v -20 -24 0
v -20 -23 0
v -19 -23 0
v -20 -24 0
v -21 -24 0
v -21 -23 0
v -20 -23 0
v -21 -24 0
v -22 -24 0
v -22 -23 0
v -21 -23 0
v -22 -24 0
v -23 -24 0
v -23 -23 0
v -22 -23 0
v -23 -24 0
v -24 -24 0
v -24 -23 0
v -23 -23 0
v -24 -24 0
v -25 -24 0
v -25 -23 0
v -24 -23 0
v 0 -25 0
v -1 -25 0
v -1 -24 0
v 0 -24 0
v -1 -25 0
v -2 -25 0
v -2 -24 0
v -1 -24 0
v -2 -25 0
v -3 -25 0
v -3 -24 0
v -2 -24 0
v -3 -25 0
v -4 -25 0
v -4 -24 0
v -3 -24 0
v -4 -25 0
v -5 -25 0
v -5 -24 0
v -4 -24 0
v -5 -25 0
v -6 -25 0
v -6 -24 0
v -5 -24 0
v -6 -25 0
v -7 -25 0
v -7 -24 0
v -6 -24 0
v -7 -25 0
v -8 -25 0
v -8 -24 0
v -7 -24 0
v -8 -25 0
v -9 -25 0
v -9 -24 0
v -8 -24 0
v -9 -25 0
v -10 -25 0
v -10 -24 0
v -9 -24 0
v -10 -25 0
v -11 -25 0
v -11 -24 0
v -10 -24 0
v -11 -25 0
v -12 -25 0
v -12 -24 0
v -11 -24 0
v -12 -25 0
v -13 -25 0
v -13 -24 0
v -12 -24 0
v -13 -25 0
v -14 -25 0
v -14 -24 0
v -13 -24 0
v -14 -25 0
v -15 -25 0
v -15 -24 0
v -14 -24 0
v -15 -25 0
v -16 -25 0
v -16 -24 0
v -15 -24 0
v -16 -25 0
v -17 -25 0
v -17 -24 0
v -16 -24 0
v -17 -25 0
v -18 -25 0
v -18 -24 0
v -17 -24 0
v -18 -25 0
v -19 -25 0
v -19 -24 0
v -18 -24 0
v -19 -25 0
v -20 -25 0
v -20 -24 0
v -19 -24 0
v -20 -25 0
v -21 -25 0
v -21 -24 0
v -20 -24 0
v -21 -25 0
v -22 -25 0
v -22 -24 0
v -21 -24 0
v -22 -25 0
v -23 -25 0
v -23 -24 0
v -22 -24 0
v -23 -25 0
v -24 -25 0
v -24 -24 0
v -23 -24 0
v -24 -25 0
v -25 -25 0
v -25 -24 0
v -24 -24 0

# Texture cooridinates (Count = 40)
vt 0.125 0.5277778
vt 0.15 0.5277778
vt 0.15 0.5555556
vt 0.125 0.5555556
vt 0.125 0.4722222
vt 0.15 0.4722222
vt 0.15 0.5
vt 0.125 0.5
vt 0.075 0.5277778
vt 0.1 0.5277778
vt 0.1 0.5555556
vt 0.075 0.5555556
vt 0.175 0.5277778
vt 0.175 0.5555556
vt 0.175 0.4722222
vt 0.175 0.5
vt 0.05 0.5277778
vt 0.05 0.5555556
vt 0.125 0.4444444
vt 0.15 0.4444444
vt 0.2 0.4722222
vt 0.2 0.5
vt 0 0.1666667
vt 0.025 0.1666667
vt 0.025 0.1944444
vt 0 0.1944444
vt 0.05 0.1666667
vt 0.05 0.1944444
vt 0.075 0.1666667
vt 0.075 0.1944444
vt 0 0.1388889
vt 0.025 0.1388889
vt 0.05 0.1388889
vt 0.075 0.1388889
vt 0 0.1111111
vt 0.025 0.1111111
vt 0.05 0.1111111
vt 0.075 0.1111111
vt 0.05 0.08333331
vt 0.075 0.08333331

# Normal
vn 0 0 -1

# Mesh description
g EntradaBosque_mesh_0002

# Faces
f 1/1/1 2/2/1 3/3/1 4/4/1
f 5/5/1 6/6/1 7/7/1 8/8/1
f 9/9/1 10/10/1 11/11/1 12/12/1
f 13/10/1 14/1/1 15/4/1 16/11/1
f 17/5/1 18/6/1 19/7/1 20/8/1
f 21/5/1 22/6/1 23/7/1 24/8/1
f 25/9/1 26/10/1 27/11/1 28/12/1
f 29/10/1 30/1/1 31/4/1 32/11/1
f 33/5/1 34/6/1 35/7/1 36/8/1
f 37/5/1 38/6/1 39/7/1 40/8/1
f 41/5/1 42/6/1 43/7/1 44/8/1
f 45/5/1 46/6/1 47/7/1 48/8/1
f 49/5/1 50/6/1 51/7/1 52/8/1
f 53/5/1 54/6/1 55/7/1 56/8/1
f 57/5/1 58/6/1 59/7/1 60/8/1
f 61/5/1 62/6/1 63/7/1 64/8/1
f 65/10/1 66/1/1 67/4/1 68/11/1
f 69/5/1 70/6/1 71/7/1 72/8/1
f 73/5/1 74/6/1 75/7/1 76/8/1
f 77/5/1 78/6/1 79/7/1 80/8/1
f 81/9/1 82/10/1 83/11/1 84/12/1
f 85/10/1 86/1/1 87/4/1 88/11/1
f 89/5/1 90/6/1 91/7/1 92/8/1
f 93/5/1 94/6/1 95/7/1 96/8/1
f 97/2/1 98/13/1 99/14/1 100/3/1
f 101/6/1 102/15/1 103/16/1 104/7/1
f 105/17/1 106/9/1 107/12/1 108/18/1
f 109/19/1 110/20/1 111/6/1 112/5/1
f 113/19/1 114/20/1 115/6/1 116/5/1
f 117/19/1 118/20/1 119/6/1 120/5/1
f 121/19/1 122/20/1 123/6/1 124/5/1
f 125/19/1 126/20/1 127/6/1 128/5/1
f 129/19/1 130/20/1 131/6/1 132/5/1
f 133/19/1 134/20/1 135/6/1 136/5/1
f 137/19/1 138/20/1 139/6/1 140/5/1
f 141/19/1 142/20/1 143/6/1 144/5/1
f 145/19/1 146/20/1 147/6/1 148/5/1
f 149/19/1 150/20/1 151/6/1 152/5/1
f 153/19/1 154/20/1 155/6/1 156/5/1
f 157/19/1 158/20/1 159/6/1 160/5/1
f 161/19/1 162/20/1 163/6/1 164/5/1
f 165/19/1 166/20/1 167/6/1 168/5/1
f 169/17/1 170/9/1 171/12/1 172/18/1
f 173/17/1 174/9/1 175/12/1 176/18/1
f 177/19/1 178/20/1 179/6/1 180/5/1
f 181/19/1 182/20/1 183/6/1 184/5/1
f 185/19/1 186/20/1 187/6/1 188/5/1
f 189/19/1 190/20/1 191/6/1 192/5/1
f 193/17/1 194/9/1 195/12/1 196/18/1
f 197/15/1 198/21/1 199/22/1 200/16/1
f 201/6/1 202/15/1 203/16/1 204/7/1
f 205/15/1 206/21/1 207/22/1 208/16/1
f 209/6/1 210/15/1 211/16/1 212/7/1
f 213/15/1 214/21/1 215/22/1 216/16/1
f 217/6/1 218/15/1 219/16/1 220/7/1
f 221/15/1 222/21/1 223/22/1 224/16/1
f 225/6/1 226/15/1 227/16/1 228/7/1
f 229/15/1 230/21/1 231/22/1 232/16/1
f 233/6/1 234/15/1 235/16/1 236/7/1
f 237/15/1 238/21/1 239/22/1 240/16/1
f 241/23/1 242/24/1 243/25/1 244/26/1
f 245/24/1 246/27/1 247/28/1 248/25/1
f 249/27/1 250/29/1 251/30/1 252/28/1
f 253/6/1 254/15/1 255/16/1 256/7/1
f 257/15/1 258/21/1 259/22/1 260/16/1
f 261/6/1 262/15/1 263/16/1 264/7/1
f 265/15/1 266/21/1 267/22/1 268/16/1
f 269/31/1 270/32/1 271/24/1 272/23/1
f 273/32/1 274/33/1 275/27/1 276/24/1
f 277/33/1 278/34/1 279/29/1 280/27/1
f 281/6/1 282/15/1 283/16/1 284/7/1
f 285/15/1 286/21/1 287/22/1 288/16/1
f 289/6/1 290/15/1 291/16/1 292/7/1
f 293/15/1 294/21/1 295/22/1 296/16/1
f 297/35/1 298/36/1 299/32/1 300/31/1
f 301/32/1 302/33/1 303/27/1 304/24/1
f 305/37/1 306/38/1 307/34/1 308/33/1
f 309/6/1 310/15/1 311/16/1 312/7/1
f 313/15/1 314/21/1 315/22/1 316/16/1
f 317/6/1 318/15/1 319/16/1 320/7/1
f 321/15/1 322/21/1 323/22/1 324/16/1
f 325/31/1 326/32/1 327/24/1 328/23/1
f 329/32/1 330/33/1 331/27/1 332/24/1
f 333/32/1 334/33/1 335/27/1 336/24/1
f 337/32/1 338/33/1 339/27/1 340/24/1
f 341/32/1 342/33/1 343/27/1 344/24/1
f 345/32/1 346/33/1 347/27/1 348/24/1
f 349/33/1 350/34/1 351/29/1 352/27/1
f 353/6/1 354/15/1 355/16/1 356/7/1
f 357/15/1 358/21/1 359/22/1 360/16/1
f 361/6/1 362/15/1 363/16/1 364/7/1
f 365/15/1 366/21/1 367/22/1 368/16/1
f 369/35/1 370/36/1 371/32/1 372/31/1
f 373/32/1 374/33/1 375/27/1 376/24/1
f 377/39/1 378/40/1 379/38/1 380/37/1
f 381/39/1 382/40/1 383/38/1 384/37/1
f 385/32/1 386/33/1 387/27/1 388/24/1
f 389/33/1 390/34/1 391/29/1 392/27/1
f 393/6/1 394/15/1 395/16/1 396/7/1
f 397/15/1 398/21/1 399/22/1 400/16/1
f 401/6/1 402/15/1 403/16/1 404/7/1
f 405/15/1 406/21/1 407/22/1 408/16/1
f 409/36/1 410/37/1 411/33/1 412/32/1
f 413/36/1 414/37/1 415/33/1 416/32/1
f 417/36/1 418/37/1 419/33/1 420/32/1
f 421/36/1 422/37/1 423/33/1 424/32/1
f 425/37/1 426/38/1 427/34/1 428/33/1
f 429/6/1 430/15/1 431/16/1 432/7/1
f 433/15/1 434/21/1 435/22/1 436/16/1
f 437/6/1 438/15/1 439/16/1 440/7/1
f 441/15/1 442/21/1 443/22/1 444/16/1
f 445/6/1 446/15/1 447/16/1 448/7/1
f 449/15/1 450/21/1 451/22/1 452/16/1
f 453/6/1 454/15/1 455/16/1 456/7/1
f 457/15/1 458/21/1 459/22/1 460/16/1
f 461/1/1 462/2/1 463/3/1 464/4/1
f 465/17/1 466/9/1 467/12/1 468/18/1
f 469/15/1 470/21/1 471/22/1 472/16/1
f 473/6/1 474/15/1 475/16/1 476/7/1
f 477/15/1 478/21/1 479/22/1 480/16/1
f 481/6/1 482/15/1 483/16/1 484/7/1
f 485/17/1 486/9/1 487/12/1 488/18/1
f 489/15/1 490/21/1 491/22/1 492/16/1
f 493/6/1 494/15/1 495/16/1 496/7/1
f 497/17/1 498/9/1 499/12/1 500/18/1
f 501/2/1 502/13/1 503/14/1 504/3/1
f 505/6/1 506/15/1 507/16/1 508/7/1
f 509/17/1 510/9/1 511/12/1 512/18/1
f 513/15/1 514/21/1 515/22/1 516/16/1
f 517/6/1 518/15/1 519/16/1 520/7/1
f 521/17/1 522/9/1 523/12/1 524/18/1
f 525/15/1 526/21/1 527/22/1 528/16/1
f 529/6/1 530/15/1 531/16/1 532/7/1
f 533/17/1 534/9/1 535/12/1 536/18/1
f 537/15/1 538/21/1 539/22/1 540/16/1
f 541/6/1 542/15/1 543/16/1 544/7/1
f 545/17/1 546/9/1 547/12/1 548/18/1
f 549/15/1 550/21/1 551/22/1 552/16/1
f 553/6/1 554/15/1 555/16/1 556/7/1
f 557/17/1 558/9/1 559/12/1 560/18/1
f 561/15/1 562/21/1 563/22/1 564/16/1
f 565/6/1 566/15/1 567/16/1 568/7/1
f 569/17/1 570/9/1 571/12/1 572/18/1
f 573/15/1 574/21/1 575/22/1 576/16/1
f 577/6/1 578/15/1 579/16/1 580/7/1
f 581/17/1 582/9/1 583/12/1 584/18/1
f 585/15/1 586/21/1 587/22/1 588/16/1
f 589/6/1 590/15/1 591/16/1 592/7/1
f 593/17/1 594/9/1 595/12/1 596/18/1
f 597/15/1 598/21/1 599/22/1 600/16/1
f 601/8/1 602/7/1 603/2/1 604/1/1
f 605/19/1 606/20/1 607/6/1 608/5/1
f 609/7/1 610/16/1 611/13/1 612/2/1
f 613/6/1 614/15/1 615/16/1 616/7/1
f 617/17/1 618/9/1 619/12/1 620/18/1
f 621/15/1 622/21/1 623/22/1 624/16/1
f 625/17/1 626/9/1 627/12/1 628/18/1
f 629/6/1 630/15/1 631/16/1 632/7/1
f 633/17/1 634/9/1 635/12/1 636/18/1
f 637/15/1 638/21/1 639/22/1 640/16/1
f 641/6/1 642/15/1 643/16/1 644/7/1
f 645/17/1 646/9/1 647/12/1 648/18/1
f 649/15/1 650/21/1 651/22/1 652/16/1
f 653/6/1 654/15/1 655/16/1 656/7/1
f 657/17/1 658/9/1 659/12/1 660/18/1
f 661/15/1 662/21/1 663/22/1 664/16/1
f 665/1/1 666/2/1 667/3/1 668/4/1
f 669/5/1 670/6/1 671/7/1 672/8/1
f 673/5/1 674/6/1 675/7/1 676/8/1
f 677/5/1 678/6/1 679/7/1 680/8/1
f 681/5/1 682/6/1 683/7/1 684/8/1
f 685/5/1 686/6/1 687/7/1 688/8/1
f 689/5/1 690/6/1 691/7/1 692/8/1
f 693/5/1 694/6/1 695/7/1 696/8/1
f 697/5/1 698/6/1 699/7/1 700/8/1
f 701/2/1 702/13/1 703/14/1 704/3/1
f 705/1/1 706/2/1 707/3/1 708/4/1
f 709/2/1 710/13/1 711/14/1 712/3/1
f 713/6/1 714/15/1 715/16/1 716/7/1
f 717/17/1 718/9/1 719/12/1 720/18/1
f 721/17/1 722/9/1 723/12/1 724/18/1
f 725/5/1 726/6/1 727/7/1 728/8/1
f 729/5/1 730/6/1 731/7/1 732/8/1
f 733/5/1 734/6/1 735/7/1 736/8/1
f 737/5/1 738/6/1 739/7/1 740/8/1
f 741/5/1 742/6/1 743/7/1 744/8/1
f 745/17/1 746/9/1 747/12/1 748/18/1
f 749/17/1 750/9/1 751/12/1 752/18/1
f 753/17/1 754/9/1 755/12/1 756/18/1
f 757/17/1 758/9/1 759/12/1 760/18/1
f 761/17/1 762/9/1 763/12/1 764/18/1
f 765/17/1 766/9/1 767/12/1 768/18/1
f 769/17/1 770/9/1 771/12/1 772/18/1
f 773/17/1 774/9/1 775/12/1 776/18/1
f 777/17/1 778/9/1 779/12/1 780/18/1
f 781/17/1 782/9/1 783/12/1 784/18/1
f 785/5/1 786/6/1 787/7/1 788/8/1
f 789/5/1 790/6/1 791/7/1 792/8/1
f 793/5/1 794/6/1 795/7/1 796/8/1
f 797/5/1 798/6/1 799/7/1 800/8/1
f 801/5/1 802/6/1 803/7/1 804/8/1
f 805/17/1 806/9/1 807/12/1 808/18/1
f 809/15/1 810/21/1 811/22/1 812/16/1
f 813/6/1 814/15/1 815/16/1 816/7/1
f 817/17/1 818/9/1 819/12/1 820/18/1
f 821/17/1 822/9/1 823/12/1 824/18/1
f 825/17/1 826/9/1 827/12/1 828/18/1
f 829/17/1 830/9/1 831/12/1 832/18/1
f 833/17/1 834/9/1 835/12/1 836/18/1
f 837/17/1 838/9/1 839/12/1 840/18/1
f 841/17/1 842/9/1 843/12/1 844/18/1
f 845/17/1 846/9/1 847/12/1 848/18/1
f 849/17/1 850/9/1 851/12/1 852/18/1
f 853/17/1 854/9/1 855/12/1 856/18/1
f 857/17/1 858/9/1 859/12/1 860/18/1
f 861/17/1 862/9/1 863/12/1 864/18/1
f 865/17/1 866/9/1 867/12/1 868/18/1
f 869/17/1 870/9/1 871/12/1 872/18/1
f 873/17/1 874/9/1 875/12/1 876/18/1
f 877/17/1 878/9/1 879/12/1 880/18/1
f 881/17/1 882/9/1 883/12/1 884/18/1
f 885/17/1 886/9/1 887/12/1 888/18/1
f 889/17/1 890/9/1 891/12/1 892/18/1
f 893/17/1 894/9/1 895/12/1 896/18/1
f 897/17/1 898/9/1 899/12/1 900/18/1
f 901/17/1 902/9/1 903/12/1 904/18/1
f 905/17/1 906/9/1 907/12/1 908/18/1
f 909/15/1 910/21/1 911/22/1 912/16/1
f 913/8/1 914/7/1 915/2/1 916/1/1
f 917/19/1 918/20/1 919/6/1 920/5/1
f 921/19/1 922/20/1 923/6/1 924/5/1
f 925/19/1 926/20/1 927/6/1 928/5/1
f 929/19/1 930/20/1 931/6/1 932/5/1
f 933/19/1 934/20/1 935/6/1 936/5/1
f 937/19/1 938/20/1 939/6/1 940/5/1
f 941/19/1 942/20/1 943/6/1 944/5/1
f 945/19/1 946/20/1 947/6/1 948/5/1
f 949/19/1 950/20/1 951/6/1 952/5/1
f 953/19/1 954/20/1 955/6/1 956/5/1
f 957/19/1 958/20/1 959/6/1 960/5/1
f 961/19/1 962/20/1 963/6/1 964/5/1
f 965/19/1 966/20/1 967/6/1 968/5/1
f 969/19/1 970/20/1 971/6/1 972/5/1
f 973/19/1 974/20/1 975/6/1 976/5/1
f 977/19/1 978/20/1 979/6/1 980/5/1
f 981/19/1 982/20/1 983/6/1 984/5/1
f 985/19/1 986/20/1 987/6/1 988/5/1
f 989/19/1 990/20/1 991/6/1 992/5/1
f 993/19/1 994/20/1 995/6/1 996/5/1
f 997/19/1 998/20/1 999/6/1 1000/5/1
f 1001/19/1 1002/20/1 1003/6/1 1004/5/1
f 1005/19/1 1006/20/1 1007/6/1 1008/5/1
f 1009/7/1 1010/16/1 1011/13/1 1012/2/1

