# Tiled2Unity generated file. Do not modify by hand.
# Wavefront file for 'CuevaNivel2_mesh_0004.obj'

# Vertices (Count = 176)
v -5 -3 0
v -6 -3 0
v -6 -2 0
v -5 -2 0
v -8 -3 0
v -9 -3 0
v -9 -2 0
v -8 -2 0
v -43 -3 0
v -44 -3 0
v -44 -2 0
v -43 -2 0
v -46 -3 0
v -47 -3 0
v -47 -2 0
v -46 -2 0
v -5 -4 0
v -6 -4 0
v -6 -3 0
v -5 -3 0
v -8 -4 0
v -9 -4 0
v -9 -3 0
v -8 -3 0
v -15 -4 0
v -16 -4 0
v -16 -3 0
v -15 -3 0
v -43 -4 0
v -44 -4 0
v -44 -3 0
v -43 -3 0
v -46 -4 0
v -47 -4 0
v -47 -3 0
v -46 -3 0
v -15 -5 0
v -16 -5 0
v -16 -4 0
v -15 -4 0
v -35 -6 0
v -36 -6 0
v -36 -5 0
v -35 -5 0
v -35 -7 0
v -36 -7 0
v -36 -6 0
v -35 -6 0
v -45 -10 0
v -46 -10 0
v -46 -9 0
v -45 -9 0
v -6 -11 0
v -7 -11 0
v -7 -10 0
v -6 -10 0
v -45 -11 0
v -46 -11 0
v -46 -10 0
v -45 -10 0
v -6 -12 0
v -7 -12 0
v -7 -11 0
v -6 -11 0
v -17 -14 0
v -18 -14 0
v -18 -13 0
v -17 -13 0
v -17 -15 0
v -18 -15 0
v -18 -14 0
v -17 -14 0
v -34 -20 0
v -35 -20 0
v -35 -19 0
v -34 -19 0
v -45 -20 0
v -46 -20 0
v -46 -19 0
v -45 -19 0
v -34 -21 0
v -35 -21 0
v -35 -20 0
v -34 -20 0
v -45 -21 0
v -46 -21 0
v -46 -20 0
v -45 -20 0
v -14 -26 0
v -15 -26 0
v -15 -25 0
v -14 -25 0
v -25 -26 0
v -26 -26 0
v -26 -25 0
v -25 -25 0
v -14 -27 0
v -15 -27 0
v -15 -26 0
v -14 -26 0
v -25 -27 0
v -26 -27 0
v -26 -26 0
v -25 -26 0
v -45 -28 0
v -46 -28 0
v -46 -27 0
v -45 -27 0
v -45 -29 0
v -46 -29 0
v -46 -28 0
v -45 -28 0
v -9 -32 0
v -10 -32 0
v -10 -31 0
v -9 -31 0
v -29 -32 0
v -30 -32 0
v -30 -31 0
v -29 -31 0
v -9 -33 0
v -10 -33 0
v -10 -32 0
v -9 -32 0
v -29 -33 0
v -30 -33 0
v -30 -32 0
v -29 -32 0
v -25 -37 0
v -26 -37 0
v -26 -36 0
v -25 -36 0
v -25 -38 0
v -26 -38 0
v -26 -37 0
v -25 -37 0
v -5 -39 0
v -6 -39 0
v -6 -38 0
v -5 -38 0
v -5 -40 0
v -6 -40 0
v -6 -39 0
v -5 -39 0
v -34 -42 0
v -35 -42 0
v -35 -41 0
v -34 -41 0
v -34 -43 0
v -35 -43 0
v -35 -42 0
v -34 -42 0
v -16 -46 0
v -17 -46 0
v -17 -45 0
v -16 -45 0
v -16 -47 0
v -17 -47 0
v -17 -46 0
v -16 -46 0
v -25 -48 0
v -26 -48 0
v -26 -47 0
v -25 -47 0
v -28 -48 0
v -29 -48 0
v -29 -47 0
v -28 -47 0
v -25 -49 0
v -26 -49 0
v -26 -48 0
v -25 -48 0
v -28 -49 0
v -29 -49 0
v -29 -48 0
v -28 -48 0

# Texture cooridinates (Count = 6)
vt 0 0.76
vt 0.025 0.76
vt 0.025 0.8
vt 0 0.8
vt 0 0.72
vt 0.025 0.72

# Normal
vn 0 0 -1

# Mesh description
g CuevaNivel2_mesh_0004

# Faces
f 1/1/1 2/2/1 3/3/1 4/4/1
f 5/1/1 6/2/1 7/3/1 8/4/1
f 9/1/1 10/2/1 11/3/1 12/4/1
f 13/1/1 14/2/1 15/3/1 16/4/1
f 17/5/1 18/6/1 19/2/1 20/1/1
f 21/5/1 22/6/1 23/2/1 24/1/1
f 25/1/1 26/2/1 27/3/1 28/4/1
f 29/5/1 30/6/1 31/2/1 32/1/1
f 33/5/1 34/6/1 35/2/1 36/1/1
f 37/5/1 38/6/1 39/2/1 40/1/1
f 41/1/1 42/2/1 43/3/1 44/4/1
f 45/5/1 46/6/1 47/2/1 48/1/1
f 49/1/1 50/2/1 51/3/1 52/4/1
f 53/1/1 54/2/1 55/3/1 56/4/1
f 57/5/1 58/6/1 59/2/1 60/1/1
f 61/5/1 62/6/1 63/2/1 64/1/1
f 65/1/1 66/2/1 67/3/1 68/4/1
f 69/5/1 70/6/1 71/2/1 72/1/1
f 73/1/1 74/2/1 75/3/1 76/4/1
f 77/1/1 78/2/1 79/3/1 80/4/1
f 81/5/1 82/6/1 83/2/1 84/1/1
f 85/5/1 86/6/1 87/2/1 88/1/1
f 89/1/1 90/2/1 91/3/1 92/4/1
f 93/1/1 94/2/1 95/3/1 96/4/1
f 97/5/1 98/6/1 99/2/1 100/1/1
f 101/5/1 102/6/1 103/2/1 104/1/1
f 105/1/1 106/2/1 107/3/1 108/4/1
f 109/5/1 110/6/1 111/2/1 112/1/1
f 113/1/1 114/2/1 115/3/1 116/4/1
f 117/1/1 118/2/1 119/3/1 120/4/1
f 121/5/1 122/6/1 123/2/1 124/1/1
f 125/5/1 126/6/1 127/2/1 128/1/1
f 129/1/1 130/2/1 131/3/1 132/4/1
f 133/5/1 134/6/1 135/2/1 136/1/1
f 137/1/1 138/2/1 139/3/1 140/4/1
f 141/5/1 142/6/1 143/2/1 144/1/1
f 145/1/1 146/2/1 147/3/1 148/4/1
f 149/5/1 150/6/1 151/2/1 152/1/1
f 153/1/1 154/2/1 155/3/1 156/4/1
f 157/5/1 158/6/1 159/2/1 160/1/1
f 161/1/1 162/2/1 163/6/1 164/5/1
f 165/1/1 166/2/1 167/6/1 168/5/1
f 169/4/1 170/3/1 171/2/1 172/1/1
f 173/4/1 174/3/1 175/2/1 176/1/1

